<svg width="160" height="154" viewBox="0 0 160 154" fill="none" xmlns="http://www.w3.org/2000/svg">
<g clip-path="url(#clip0_609_36)">
<path d="M91.675 0C82.217 11.0177 74.3169 23.6491 68.0886 35.2408H49.7815C40.0129 35.2408 32.0956 27.3474 32.0956 17.6169C32.0956 12.7551 34.0762 8.35048 37.2749 5.15911C40.4719 1.9729 44.8938 0 49.7815 0H91.675Z" fill="#0EA3FD"/>
<path d="M160 17.6169C160 22.4787 158.019 26.8903 154.821 30.0748C151.622 33.2661 147.2 35.2408 142.314 35.2408H79.4979C86.3525 23.0682 94.9859 10.2323 105.139 0H142.314C152.083 0 160 7.88647 160 17.6169Z" fill="#0EA3FD"/>
<path d="M90.5571 84.828C91.2213 88.0641 91.9166 91.1815 92.6378 94.1804H17.686C7.91736 94.1804 0 86.294 0 76.5635C0 71.6948 1.98063 67.2901 5.17932 64.1056C8.37801 60.9212 12.7999 58.9465 17.686 58.9465H56.7672C53.5755 66.5116 51.8174 71.5779 51.5948 72.2224L50.2663 76.1132L53.8619 78.1291C65.9337 84.8968 82.5966 85.1631 90.5588 84.828H90.5571Z" fill="#0EA3FD"/>
<path d="M127.906 76.5635C127.906 81.4322 125.926 85.8368 122.727 89.0213C119.528 92.2075 115.106 94.1804 110.22 94.1804H102.862C101.658 89.3375 100.514 84.1715 99.4647 78.6722L98.6072 74.1867L94.049 74.6748C93.8506 74.6937 75.773 76.5429 62.5262 71.291C63.6442 68.3832 65.3643 64.0971 67.6435 58.9431H110.22C119.989 58.9431 127.906 66.8296 127.906 76.5601V76.5635Z" fill="#0EA3FD"/>
<path d="M101.264 122.941C106.816 137.997 112.356 147.932 115.727 153.27C110.051 153.734 103.555 153.993 96.0538 154H95.9486C70.9405 153.993 57.0346 151.08 47.7198 147.442C38.3981 143.799 32.1318 136.153 32.1318 126.397C32.1318 117.242 38.7517 115.948 43.9431 115.948C49.1345 115.948 58.3131 122.975 95.9469 122.987H96.0521C97.8533 122.987 99.5924 122.968 101.262 122.937L101.264 122.941Z" fill="#0EA3FD"/>
<path d="M159.869 126.398C159.869 136.153 153.603 143.799 144.281 147.444C139.742 149.219 134.109 150.821 126.638 151.991L126.786 151.874C126.674 151.738 119.452 142.446 111.738 122.528C136.462 120.95 143.677 115.953 148.056 115.953C153.247 115.953 159.867 117.245 159.867 126.402L159.869 126.398Z" fill="#0EA3FD"/>
</g>
<defs>
<clipPath id="clip0_609_36">
<rect width="160" height="154" fill="white"/>
</clipPath>
</defs>
</svg>
