<svg width="60" height="76" viewBox="0 0 60 76" fill="none" xmlns="http://www.w3.org/2000/svg">
<path fill-rule="evenodd" clip-rule="evenodd" d="M34.9032 9.80645C34.9032 12.5144 32.708 14.7097 30 14.7097C27.292 14.7097 25.0968 12.5144 25.0968 9.80645C25.0968 7.09847 27.292 4.90323 30 4.90323C32.708 4.90323 34.9032 7.09847 34.9032 9.80645ZM39.8064 9.80645C39.8064 11.625 39.3114 13.328 38.4488 14.7879L44.6314 20.9706C46.0913 20.1079 47.7943 19.6129 49.6129 19.6129C55.0288 19.6129 59.4193 24.0034 59.4193 29.4193C59.4193 34.8353 55.0288 39.2258 49.6129 39.2258C47.7942 39.2258 46.0912 38.7307 44.6312 37.868L38.4486 44.0506C39.3114 45.5106 39.8064 47.2136 39.8064 49.0323C39.8064 53.4197 36.9252 57.1342 32.9515 58.3868L37.3548 76H22.6452L27.0485 58.3868C23.0748 57.1342 20.1935 53.4197 20.1935 49.0323C20.1935 47.8693 20.396 46.7535 20.7676 45.7184L13.7009 38.6518C12.6658 39.0233 11.5501 39.2258 10.3871 39.2258C4.97113 39.2258 0.580627 34.8353 0.580627 29.4193C0.580627 24.0034 4.97113 19.6129 10.3871 19.6129C15.803 19.6129 20.1935 24.0034 20.1935 29.4193C20.1935 31.8688 19.2954 34.1086 17.8106 35.8272L23.5921 41.6087C25.3108 40.1239 27.5505 39.2258 30 39.2258C31.8186 39.2258 33.5215 39.7209 34.9815 40.5835L41.1641 34.4009C40.3015 32.9409 39.8064 31.2379 39.8064 29.4193C39.8064 27.6007 40.3015 25.8976 41.1643 24.4376L34.9817 18.2551C33.5217 19.1178 31.8187 19.6129 30 19.6129C24.584 19.6129 20.1935 15.2224 20.1935 9.80645C20.1935 4.3905 24.584 0 30 0C35.4159 0 39.8064 4.3905 39.8064 9.80645ZM34.9032 49.0323C34.9032 51.7402 32.708 53.9355 30 53.9355C27.292 53.9355 25.0968 51.7402 25.0968 49.0323C25.0968 46.3243 27.292 44.129 30 44.129C32.708 44.129 34.9032 46.3243 34.9032 49.0323ZM49.6129 34.3226C52.3209 34.3226 54.5161 32.1273 54.5161 29.4193C54.5161 26.7114 52.3209 24.5161 49.6129 24.5161C46.9049 24.5161 44.7097 26.7114 44.7097 29.4193C44.7097 32.1273 46.9049 34.3226 49.6129 34.3226ZM15.2903 29.4193C15.2903 32.1273 13.0951 34.3226 10.3871 34.3226C7.6791 34.3226 5.48385 32.1273 5.48385 29.4193C5.48385 26.7114 7.6791 24.5161 10.3871 24.5161C13.0951 24.5161 15.2903 26.7114 15.2903 29.4193Z" fill="black"/>
</svg>
