<svg width="163" height="163" viewBox="0 0 163 163" fill="none" xmlns="http://www.w3.org/2000/svg">
<path d="M155.985 84.2498H133.996C130.122 84.2498 126.981 87.3904 126.981 91.2645V113.813C126.981 117.687 130.122 120.828 133.996 120.828H155.985C159.859 120.828 163 117.687 163 113.813V91.2645C163 87.3904 159.859 84.2498 155.985 84.2498Z" fill="#C3262E"/>
<path d="M113.619 84.2498H91.6297C87.7555 84.2498 84.6149 87.3904 84.6149 91.2645V113.813C84.6149 117.687 87.7555 120.828 91.6297 120.828H113.619C117.493 120.828 120.634 117.687 120.634 113.813V91.2645C120.634 87.3904 117.493 84.2498 113.619 84.2498Z" fill="#666666"/>
<path d="M71.2178 84.2498H49.2282C45.3541 84.2498 42.2135 87.3904 42.2135 91.2645V113.813C42.2135 117.687 45.3541 120.828 49.2282 120.828H71.2178C75.0919 120.828 78.2325 117.687 78.2325 113.813V91.2645C78.2325 87.3904 75.0919 84.2498 71.2178 84.2498Z" fill="#999999"/>
<path d="M71.2178 126.422H49.2282C45.3541 126.422 42.2135 129.562 42.2135 133.436V155.985C42.2135 159.859 45.3541 163 49.2282 163H71.2178C75.0919 163 78.2325 159.859 78.2325 155.985V133.436C78.2325 129.562 75.0919 126.422 71.2178 126.422Z" fill="#4D4D4D"/>
<path d="M113.619 42.0764H91.6297C87.7555 42.0764 84.6149 45.217 84.6149 49.0911V71.6398C84.6149 75.5139 87.7555 78.6545 91.6297 78.6545H113.619C117.493 78.6545 120.634 75.5139 120.634 71.6398V49.0911C120.634 45.217 117.493 42.0764 113.619 42.0764Z" fill="#EB1C26"/>
<path d="M71.2178 42.0764H49.2282C45.3541 42.0764 42.2135 45.217 42.2135 49.0911V71.6398C42.2135 75.5139 45.3541 78.6545 49.2282 78.6545H71.2178C75.0919 78.6545 78.2325 75.5139 78.2325 71.6398V49.0911C78.2325 45.217 75.0919 42.0764 71.2178 42.0764Z" fill="#F25827"/>
<path d="M113.619 -0.000183105H91.6297C87.7555 -0.000183105 84.6149 3.14042 84.6149 7.01454V29.5632C84.6149 33.4373 87.7555 36.5779 91.6297 36.5779H113.619C117.493 36.5779 120.634 33.4373 120.634 29.5632V7.01454C120.634 3.14042 117.493 -0.000183105 113.619 -0.000183105Z" fill="#C2272D"/>
<path d="M29.0041 42.0764H7.01451C3.14039 42.0764 -0.000213623 45.217 -0.000213623 49.0911V71.6398C-0.000213623 75.5139 3.14039 78.6545 7.01451 78.6545H29.0041C32.8782 78.6545 36.0188 75.5139 36.0188 71.6398V49.0911C36.0188 45.217 32.8782 42.0764 29.0041 42.0764Z" fill="#808080"/>
</svg>
